<?xml version="1.0" encoding="utf-8"?>
<!-- Generator: Adobe Illustrator 22.1.0, SVG Export Plug-In . SVG Version: 6.00 Build 0)  -->
<svg version="1.1" id="Layer_1" xmlns="http://www.w3.org/2000/svg" xmlns:xlink="http://www.w3.org/1999/xlink" x="0px" y="0px"
	 viewBox="0 0 159 61.7" style="enable-background:new 0 0 159 61.7;" xml:space="preserve">
<style type="text/css">
	.st0{fill:#83B541;}
	.st1{fill:#FFFFFF;}
</style>
<path class="st0" d="M20.9,17.4c-0.8-0.5-3.1-0.2-5.8,0.7c-4.8,3.6-8.8,8.7-9.1,17.2c-0.1,0.2-0.5,0-0.7-0.1
	c-1.3-2.7-1.8-5.5-0.7-9.6c0.2-0.3-0.5-0.8-0.6-0.7c-0.2,0.2-1.2,1.4-1.9,2.6c-3.3,6.1-1.1,13.9,4.6,17.3c5.6,3.4,12.8,1.2,16-4.9
	C26.5,32.8,23.1,18.7,20.9,17.4z"/>
<g>
	<path class="st1" d="M41.3,20.8c-6.8,0-11.7,5.4-11.7,12.9s4.9,12.8,11.9,12.8c3.5,0,6.3-1.2,8.5-3.7c0.7-0.7,0.7-1.6,0.7-1.8
		c0-1.2-0.8-2.1-2-2.1c-0.6,0-1.1,0.2-1.6,0.8c-1.2,1.3-2.9,2.5-5.6,2.5c-3.8,0-6.9-3.1-7.1-7.1h15.2c1.6,0,2.5-0.8,2.5-2.5
		c0-0.5,0-0.9-0.1-1.6C51.1,24.7,47.1,20.8,41.3,20.8z M41.3,24.8c3.7,0,6,2.5,6.1,6.6H34.3C34.7,27.6,37.6,24.8,41.3,24.8z"/>
	<path class="st1" d="M66.5,20.8c-3,0-6,1.9-7.3,4.6v-1.6c0-2.5-1.8-2.7-2.2-2.7c-1.1,0-2.2,0.7-2.2,2.7v19.7c0,2.6,2,2.8,2.3,2.8
		c0.4,0,2.3-0.2,2.3-2.8V32.9c0-4.6,2.4-7.8,5.9-7.8c3.4,0,5,2.4,5,7.3v11.1c0,2.6,2,2.8,2.3,2.8c0.4,0,2.3-0.2,2.3-2.8V30.8
		C75,26,72.8,20.8,66.5,20.8z"/>
	<path class="st1" d="M96,21.1c-1.1,0-1.9,0.7-2.3,2l-6.4,17.2L81,23.1c-0.5-1.4-1.2-2-2.4-2c-1.3,0-2.3,1.1-2.3,2.4
		c0,0.3,0,0.7,0.3,1.4l7.3,18.6c0.9,2.2,2.3,2.7,3.4,2.7c1.1,0,2.5-0.5,3.4-2.7L98,24.7c0.2-0.7,0.3-1.1,0.3-1.4
		C98.2,22.1,97.2,21.1,96,21.1z"/>
	<path class="st1" d="M109.4,20.8c-2.9,0-5.7,0.9-7.8,2.5c-0.7,0.5-1.1,1.1-1.1,2c0,1.1,0.8,2,1.8,2c0.4,0,0.9-0.2,1.4-0.5
		c1.8-1.3,3.4-1.9,5.2-1.9c3.4,0,5.4,1.9,5.4,5.1v0.6c-7.7,0-15.5,1-15.5,8.3c0,5.2,4.1,7.5,8.2,7.5c3.3,0,5.8-1.4,7.5-4v1.3
		c0,1.9,1.1,2.5,2.2,2.5c0.2,0,2-0.1,2-2.5V30.4C118.9,24.4,115.3,20.8,109.4,20.8z M113.4,34.3h1v1.1c0,4.3-2.5,6.9-6.3,6.9
		c-1.1,0-4.4-0.2-4.4-3.7C103.6,34.8,109.2,34.3,113.4,34.3z"/>
	<path class="st1" d="M130.9,25.6c2,0,2.1-1.7,2.1-2c0-1-0.6-2.1-2.1-2.1h-4.2v-4.6c0-2-1.2-2.8-2.3-2.8c-0.4,0-2.3,0.2-2.3,2.8
		v21.7c0,5,2.3,7.6,6.6,7.6c1.1,0,2.2-0.2,2.9-0.6c0.8-0.4,1.3-1.1,1.3-2c0-1.1-0.7-2-1.9-2c-0.2,0-0.5,0.1-0.8,0.2
		c-0.4,0.1-0.7,0.2-1,0.2c-1.7,0-2.5-1.2-2.5-3.9V25.6H130.9z"/>
	<path class="st1" d="M146.2,20.8c-7,0-12.1,5.4-12.1,12.8c0,3.6,1.2,6.9,3.4,9.2s5.3,3.6,8.7,3.6c6.9,0,12.1-5.6,12.1-12.9
		C158.3,26.2,153.3,20.8,146.2,20.8z M146.2,42.2c-4.8,0-7.4-4.3-7.4-8.7c0-5.9,3.8-8.6,7.4-8.6s7.4,2.7,7.4,8.6
		C153.5,39.5,149.8,42.2,146.2,42.2z"/>
</g>
</svg>
