<?xml version="1.0" encoding="utf-8"?>
<!-- Generator: Adobe Illustrator 22.1.0, SVG Export Plug-In . SVG Version: 6.00 Build 0)  -->
<svg version="1.1" id="Слой_1" xmlns="http://www.w3.org/2000/svg" xmlns:xlink="http://www.w3.org/1999/xlink" x="0px" y="0px"
	 viewBox="0 0 200 40" style="enable-background:new 0 0 200 40;" xml:space="preserve">
<style type="text/css">
	.st0{fill:#82B540;}
	.st1{fill:#FFFFFF;}
</style>
<path class="st0" d="M25.4,4.4c-1-0.6-3.8-0.2-7.1,0.9C12.4,9.7,7.5,16,7.2,26.3c-0.1,0.2-0.6,0-0.8-0.1c-1.6-3.3-2.2-6.7-0.9-11.7
	c0.2-0.4-0.6-1-0.7-0.8c-0.3,0.3-1.5,1.7-2.3,3.2c-4,7.5-1.4,17,5.6,21.2c6.9,4.2,15.7,1.5,19.6-6C32.2,23.3,28,6,25.4,4.4z"/>
<g>
	<path class="st1" d="M50.3,8.6C42,8.6,36,15.2,36,24.4C36,33.6,42,40,50.5,40c4.3,0,7.7-1.5,10.4-4.5c0.8-0.9,0.9-1.9,0.9-2.2
		c0-1.5-1-2.6-2.4-2.6c-0.7,0-1.3,0.3-2,1c-1.5,1.6-3.6,3.1-6.9,3.1c-4.7,0-8.5-3.8-8.7-8.7h18.6c2,0,3-1,3-3.1c0-0.6,0-1.1-0.1-1.9
		C62.3,13.3,57.4,8.6,50.3,8.6z M50.3,13.5c4.5,0,7.3,3.1,7.5,8.1H41.8C42.3,16.9,45.8,13.5,50.3,13.5z"/>
	<path class="st1" d="M81.2,8.6c-3.7,0-7.4,2.3-8.9,5.6v-2c0-3.1-2.2-3.3-2.7-3.3c-1.3,0-2.7,0.9-2.7,3.3v24.1
		c0,3.2,2.4,3.4,2.8,3.4c0.5,0,2.8-0.2,2.8-3.4V23.4c0-5.6,2.9-9.6,7.2-9.6c4.1,0,6.1,2.9,6.1,8.9v13.6c0,3.2,2.4,3.4,2.8,3.4
		c0.5,0,2.8-0.2,2.8-3.4V20.8C91.5,14.9,88.8,8.6,81.2,8.6z"/>
	<path class="st1" d="M117.2,8.9c-1.3,0-2.3,0.8-2.8,2.5l-7.8,21.1l-7.7-21.1c-0.6-1.7-1.5-2.5-2.9-2.5c-1.6,0-2.8,1.3-2.8,2.9
		c0,0.4,0,0.9,0.4,1.7l8.9,22.8c1.1,2.7,2.8,3.3,4.1,3.3c1.3,0,3-0.6,4.1-3.3l9-22.9c0.3-0.8,0.4-1.4,0.4-1.7
		C119.9,10.2,118.7,8.9,117.2,8.9z"/>
	<path class="st1" d="M133.6,8.6c-3.6,0-7,1.1-9.5,3.1c-0.8,0.6-1.3,1.4-1.3,2.4c0,1.4,1,2.4,2.2,2.4c0.5,0,1.1-0.2,1.7-0.6
		c2.2-1.6,4.2-2.3,6.4-2.3c4.2,0,6.6,2.3,6.6,6.3v0.7c-9.4,0-19,1.2-19,10.1c0,6.4,5,9.2,10,9.2c4,0,7.1-1.7,9.2-4.9v1.6
		c0,2.3,1.4,3.1,2.7,3.1c0.3,0,2.5-0.1,2.5-3.1V20.3C145.2,13,140.8,8.6,133.6,8.6z M138.5,25.1h1.2v1.4c0,5.2-3,8.5-7.7,8.5
		c-1.3,0-5.4-0.3-5.4-4.5C126.5,25.7,133.4,25.1,138.5,25.1z"/>
	<path class="st1" d="M159.9,14.5c2.5,0,2.6-2.1,2.6-2.5c0-1.2-0.7-2.6-2.6-2.6h-5.1V3.8c0-2.5-1.5-3.4-2.8-3.4
		c-0.5,0-2.8,0.2-2.8,3.4v26.5c0,6.1,2.8,9.3,8.1,9.3c1.4,0,2.7-0.3,3.6-0.7c1-0.5,1.6-1.4,1.6-2.4c0-1.4-0.9-2.4-2.3-2.4
		c-0.3,0-0.6,0.1-1,0.2c-0.5,0.1-0.8,0.2-1.2,0.2c-2.1,0-3.1-1.5-3.1-4.8V14.5H159.9z"/>
	<path class="st1" d="M178.7,8.6c-8.6,0-14.8,6.6-14.8,15.6c0,4.4,1.5,8.4,4.2,11.3c2.7,2.9,6.5,4.4,10.6,4.4
		c8.5,0,14.8-6.8,14.8-15.8C193.5,15.2,187.3,8.6,178.7,8.6z M178.7,34.8c-5.9,0-9-5.3-9-10.6c0-7.2,4.6-10.5,9-10.5s9,3.3,9,10.5
		C187.6,31.5,183,34.8,178.7,34.8z"/>
</g>
</svg>
