<?xml version="1.0" encoding="utf-8"?>
<!-- Generator: Adobe Illustrator 22.1.0, SVG Export Plug-In . SVG Version: 6.00 Build 0)  -->
<svg version="1.1" id="Layer_1" xmlns="http://www.w3.org/2000/svg" xmlns:xlink="http://www.w3.org/1999/xlink" x="0px" y="0px"
	 viewBox="0 0 159 61.7" style="enable-background:new 0 0 159 61.7;" xml:space="preserve">
<style type="text/css">
	.st0{fill:none;stroke:#ffffff;stroke-width:4;stroke-miterlimit:10;}
	.st1{fill:none;stroke:#ffffff;stroke-width:2;stroke-miterlimit:10;}
</style>
<path class="st0" d="M104.9,58.9h47.7l-33-33l-18.8,31.9C102.3,57.9,103.5,58.3,104.9,58.9z"/>
<path class="st0" d="M99.1,58c0.1,0,0.2,0,0.3,0L55.1,13.6L5.6,58.9h91.6C97.8,58.5,98.4,58.2,99.1,58z"/>
<path class="st0" d="M100.7,57.9l14.7-25.1L86.2,3.4L65.7,23.8l34.1,34.1C100.1,57.9,100.4,57.9,100.7,57.9z"/>
<polyline class="st1" points="39,28.4 47.5,36.2 55.3,28.4 60.3,32.3 67,25.6 "/>
<polyline class="st1" points="75.3,11.7 83.3,17 87.7,11.7 93.5,17 97,11.7 "/>
<polyline class="st1" points="113.6,36.2 121.2,40.3 128.3,34.5 "/>
</svg>
