<?xml version="1.0" encoding="utf-8"?>
<!-- Generator: Adobe Illustrator 22.1.0, SVG Export Plug-In . SVG Version: 6.00 Build 0)  -->
<svg version="1.1" id="Layer_1" xmlns="http://www.w3.org/2000/svg" xmlns:xlink="http://www.w3.org/1999/xlink" x="0px" y="0px"
	 viewBox="0 0 291.3 291.3" style="enable-background:new 0 0 291.3 291.3;" xml:space="preserve">
<style type="text/css">
	.st0{fill:#FFFFFF;}
</style>
<g>
	<path class="st0" d="M209.6,127.4h-22.5c2.1,5.2,3.3,12.3,3.3,18.3c0,24.7-20.1,44.8-44.8,44.8c-24.7,0-44.8-20.1-44.8-44.8
		c0-6,1.2-13.1,3.3-18.3H81.4V194c0,8.7,7,15.7,15.7,15.7h96.9c8.7,0,15.7-7,15.7-15.7h0V127.4z"/>
	<polygon class="st0" points="209.5,109.2 209.5,82 205.9,82 182,82.1 182.1,109.3 	"/>
	<path class="st0" d="M145.7,173.1c15.1,0,27.4-12.3,27.4-27.4c0-6.1-4.7-27.4-27.4-27.4c-22.7,0-27.4,21.3-27.4,27.4
		C118.2,160.8,130.5,173.1,145.7,173.1z"/>
	<path class="st0" d="M145.7,0C65.2,0,0,65.2,0,145.7s65.2,145.7,145.7,145.7s145.7-65.2,145.7-145.7S226.1,0,145.7,0z M227.6,195.9
		c0,17.5-14.2,31.7-31.7,31.7H95.4c-17.5,0-31.7-14.2-31.7-31.7V95.4c0-17.5,14.2-31.7,31.7-31.7h100.5c17.5,0,31.7,14.2,31.7,31.7
		V195.9z"/>
</g>
</svg>
